<?xml version="1.0" encoding="UTF-8"?>
<!--Generator: Apple Native CoreSVG 232.5-->
<!DOCTYPE svg
PUBLIC "-//W3C//DTD SVG 1.1//EN"
       "http://www.w3.org/Graphics/SVG/1.1/DTD/svg11.dtd">
<svg version="1.1" xmlns="http://www.w3.org/2000/svg" xmlns:xlink="http://www.w3.org/1999/xlink" width="41.5933" height="44.167">
 <g>
  <rect height="44.167" opacity="0" width="41.5933" x="0" y="0"/>
  <path d="M4.38573 44.1338L36.8701 44.1338C39.6143 44.1338 41.2515 42.834 41.2515 40.6758C41.2515 34.3945 33.2866 25.7559 20.6157 25.7559C7.96923 25.7559 0 34.3945 0 40.6758C0 42.834 1.6416 44.1338 4.38573 44.1338ZM20.6357 21.4209C25.957 21.4209 30.4849 16.6894 30.4849 10.5728C30.4849 4.57324 25.9438 0 20.6357 0C15.3276 0 10.791 4.65332 10.791 10.6172C10.791 16.6894 15.2988 21.4209 20.6357 21.4209Z" fill="#ffffff" fill-opacity="0.85"/>
 </g>
</svg>
