<?xml version="1.0" encoding="UTF-8"?>
<!--Generator: Apple Native CoreSVG 232.5-->
<!DOCTYPE svg
PUBLIC "-//W3C//DTD SVG 1.1//EN"
       "http://www.w3.org/Graphics/SVG/1.1/DTD/svg11.dtd">
<svg version="1.1" xmlns="http://www.w3.org/2000/svg" xmlns:xlink="http://www.w3.org/1999/xlink" width="50.7837" height="50.4531">
 <g>
  <rect height="50.4531" opacity="0" width="50.7837" x="0" y="0"/>
  <path d="M26.1606 43.8174C30.8037 43.8174 34.688 36.7681 35.6802 35.1343C36.9497 33.0415 36.3682 30.9663 36.3682 29.772C36.3682 29.103 38.9253 27.1748 38.9253 24.9795C38.9253 22.729 33.9819 20.8164 33.9819 20.0317C33.9819 19.5073 34.4263 18.8564 34.8398 18.8564C35.7129 18.8564 38.354 22.2104 39.9741 22.2104C40.9858 22.2104 41.3052 21.3691 41.6123 21.3691C42.1924 21.3691 42.6743 28.6201 46.1533 30.0259L47.2754 27.5776C44.1353 27.0708 45.3574 18.519 41.8809 18.519C40.7935 18.519 40.1035 19.4668 39.7588 19.4668C39.543 19.4668 38.7192 18.7847 37.5161 17.8061C36.8169 17.249 36.0669 16.479 34.7178 16.479C33.0713 16.479 31.478 18.3232 31.478 20.0605C31.478 22.7129 36.2749 24.1748 36.2749 24.9795C36.2749 25.4971 36.0684 25.9058 35.1958 26.9004C34.1729 28.0498 33.7178 28.8154 33.7178 29.772C33.7178 30.1914 33.7666 30.5776 33.791 30.9394C33.9131 32.5268 33.8398 33.1064 33.4023 33.8525C32.3013 35.542 29.1645 41.167 26.1606 41.167C23.5469 41.167 23.7822 37.3701 23.7822 33.7519C23.7822 30.1655 20.9414 27.4712 17.1597 27.4712C14.3555 27.4712 13.0254 26.1255 13.0254 23.479C13.0254 19.8286 16.8623 17.4306 20.6357 17.4306C23.1597 17.4306 25.1641 18.6455 27.144 18.6455C28.7754 18.6455 29.9932 16.2261 29.9932 14.3447C29.9932 12.0434 25.1528 9.51122 23.688 9.51122C22.4609 9.51122 21.9175 10.2324 21.8286 11.7529L22.3784 11.6865L21.6411 11.1113C20.6728 10.3896 19.8804 9.96336 18.979 9.96336C16.7715 9.96336 16.375 13.0469 15.2529 13.0469C14.9707 13.0469 14.7773 12.8535 14.7773 12.5469C14.7773 11.5649 17.4072 9.36326 17.436 6.39304L17.4604 4.32762L14.9653 4.32762L14.9653 6.61716C14.9653 9.41942 12.3882 10.4629 12.3882 12.8305C12.3882 14.2334 13.3848 15.1523 14.9097 15.1523C17.7051 15.1523 18.0088 12.1728 19.1323 12.1728C19.9678 12.1928 20.9936 13.7471 22.8403 13.7471C23.9106 13.7471 24.4785 12.9966 24.4912 11.6821L23.8164 11.9062C25.3804 12.4829 27.498 13.5757 27.498 14.5513C27.498 15.1377 27.2559 15.9951 26.7651 15.9951C25.8164 15.9951 23.0884 14.7847 20.6357 14.7847C15.4228 14.7847 10.375 18.3647 10.375 23.479C10.375 27.6182 12.8472 30.1216 17.1597 30.1216C19.4443 30.1216 21.1274 31.647 21.1274 33.7519C21.1274 37.3169 20.7168 43.8174 26.1606 43.8174ZM32.7041 10.5571C33.2148 10.5571 33.6855 11.0654 34.6196 11.0654C35.2163 11.0654 35.6665 10.522 35.6665 9.81883C35.6665 8.59178 34.2974 7.66209 32.5088 7.66209C30.4072 7.66209 29.1802 8.36326 29.1802 9.5991C29.1802 10.4199 29.8013 11.0122 30.6177 11.0122C31.4629 11.0122 31.8115 10.5571 32.7041 10.5571ZM25.2187 50.4375C39.0351 50.4375 50.4419 39.0151 50.4419 25.2187C50.4419 11.4023 39.0151 0 25.1987 0C11.4067 0 0 11.4023 0 25.2187C0 39.0151 11.4268 50.4375 25.2187 50.4375ZM25.2187 46.5283C13.5674 46.5283 3.91355 36.8745 3.91355 25.2187C3.91355 13.563 13.5473 3.90916 25.1987 3.90916C36.8545 3.90916 46.5283 13.563 46.5283 25.2187C46.5283 36.8745 36.8745 46.5283 25.2187 46.5283Z" fill="#ffffff" fill-opacity="0.85"/>
 </g>
</svg>
