<?xml version="1.0" encoding="UTF-8"?>
<!--Generator: Apple Native CoreSVG 232.5-->
<!DOCTYPE svg
PUBLIC "-//W3C//DTD SVG 1.1//EN"
       "http://www.w3.org/Graphics/SVG/1.1/DTD/svg11.dtd">
<svg version="1.1" xmlns="http://www.w3.org/2000/svg" xmlns:xlink="http://www.w3.org/1999/xlink" width="47.2934" height="62.2314">
 <g>
  <rect height="62.2314" opacity="0" width="47.2934" x="0" y="0"/>
  <path d="M25.4433 3.89502C26.0986 3.76611 26.8672 3.81494 27.4424 3.97266C28.6494 2.89404 30.2182 2.3081 31.9092 2.3081C34.5835 2.3081 36.5161 3.86865 37.6118 6.29394C41.5727 6.42675 44.289 9.45556 44.289 13.7558C44.289 15.5635 43.6591 17.2344 42.6054 18.5443C44.1482 20.1743 44.9281 22.5041 44.3921 25.3017L41.285 41.7434C40.2789 40.862 38.959 40.2956 37.48 40.1352L40.397 25.0361C41.001 21.9448 38.833 20.062 36.2466 20.062C34.1836 20.062 32.4936 21.4585 32.2671 24.0102L30.5284 43.3076C30.114 44.0333 29.8573 44.8649 29.791 45.7764C28.2587 46.1484 26.9372 47.0356 26.0164 48.234L28.2344 23.8242C28.5098 20.8218 26.5937 18.8169 23.4736 18.8169C20.3579 18.8169 18.4419 20.8218 18.7173 23.8242L21.4741 54.1641L24.8794 54.1641C25.3854 55.9371 26.5997 57.3966 28.2028 58.2368L13.8501 58.2368C10.227 58.2368 8.38329 56.145 7.70214 52.5151L2.55956 25.3017C2.04611 22.622 2.74002 20.3715 4.16344 18.7612C3.22068 17.5623 2.6582 16.0401 2.6582 14.3994C2.6582 10.5718 5.76708 7.43408 9.57714 7.5122C9.62987 5.87841 11.1616 4.22656 12.9643 4.33154C13.4609 2.10645 15.8457 0 19.3257 0C21.9775 0 24.3408 1.51807 25.4433 3.89502ZM6.55466 25.0361L11.8193 52.2871C12.0503 53.5288 12.77 54.1641 14.0293 54.1641L17.4014 54.1641L14.6645 24.0102C14.458 21.4585 12.7681 20.062 10.7051 20.062C8.11863 20.062 5.95066 21.9448 6.55466 25.0361ZM16.2451 8.37694C13.7856 7.21336 11.2202 9.0952 11.5708 11.4931C8.89452 10.6059 6.51414 12.2056 6.51414 14.3642C6.51414 15.2465 6.84791 16.0247 7.40828 16.5682C8.42275 16.1843 9.54143 15.9849 10.7051 15.9849C12.8672 15.9849 14.7827 16.8286 16.1675 18.332C17.605 16.1475 20.2373 14.7397 23.4736 14.7397C26.7143 14.7397 29.3467 16.1475 30.7842 18.332C32.1689 16.8286 34.0845 15.9849 36.2466 15.9849C37.3034 15.9849 38.3231 16.1493 39.2599 16.47C39.9775 15.8452 40.4463 14.9574 40.4463 14.0132C40.4463 11.2734 38.3218 9.88426 35.3164 10.355C35.4995 7.91356 34.2422 6.18651 32.0932 6.18651C30.5552 6.18651 29.1929 7.0454 28.6152 8.65086C27.3076 7.41893 24.3872 7.19042 22.8047 8.29296C23.2041 5.5327 21.3647 3.89598 19.3257 3.89598C17.1982 3.89598 15.4751 5.5908 16.2451 8.37694Z" fill="#ffffff" fill-opacity="0.85"/>
  <path d="M36.5605 62.187C38.9726 62.187 41.1982 60.8398 42.3139 58.7627C45.2675 58.0176 47.2934 55.3662 47.2934 52.3174C47.2934 49.6055 45.6709 47.2559 43.2905 46.0688C43.186 42.4653 40.2304 40.0776 36.5605 40.0776C32.9482 40.0776 30.039 42.3677 29.791 45.7764C26.8042 46.5015 24.6182 49.1841 24.6182 52.2974C24.6182 55.8232 27.2856 58.6543 30.7182 58.9956C31.9292 60.9018 34.1548 62.187 36.5605 62.187ZM36.5605 58.8003C34.6982 58.8003 32.914 57.6416 33.0141 55.418C30.5415 56.2124 27.9761 54.9272 27.9761 52.2974C27.9761 49.5923 30.0932 48.1074 33.1933 48.6553C32.3857 46.3979 33.5556 43.46 36.5605 43.46C39.459 43.46 40.813 46.2583 40.0141 48.7998C42.333 48.5337 43.8291 50.0864 43.8291 52.4087C43.8291 54.46 42.3994 55.7974 39.8896 55.5732C39.9961 57.4619 38.2783 58.8003 36.5605 58.8003Z" fill="#ffffff" fill-opacity="0.85"/>
 </g>
</svg>
