<svg width="150" height="150" viewBox="0 0 150 150" fill="none" xmlns="http://www.w3.org/2000/svg">
<path d="M100.683 79.202L116.509 70.823L99.752 63.375L109.062 41.963L84.857 47.55L82.995 28L68.1 42.895L45.757 28L50.412 51.274L29 47.55L43.895 68.031L30.862 71.754L43.895 84.787L32.724 93.166L45.757 96.89L40.171 107.13L54.044 105.396C48.806 91.206 51.927 66.645 51.927 66.645C53.78 37.533 89.913 44.107 92.692 64.767C94.24 76.277 95.471 92.94 89.913 107.966C89.791 108.296 89.652 108.609 89.514 108.924L96.959 110.854L96.028 104.337L108.13 103.406L102.544 92.235L112.784 87.58L100.683 79.202Z" stroke="black" stroke-width="2" stroke-miterlimit="10" stroke-linecap="round" stroke-linejoin="round"/>
<path d="M51.926 66.645C51.926 66.645 48.22 95.757 55.632 108.905C63.044 122.053 84.353 122.992 89.912 107.966C95.471 92.94 94.24 76.277 92.691 64.767C89.912 44.107 53.779 37.533 51.926 66.645Z" stroke="black" stroke-width="2" stroke-miterlimit="10" stroke-linecap="round" stroke-linejoin="round"/>
<path d="M59.224 68.347C57.071 69.662 55.612 71.999 55.515 74.685C60.689 73.325 65.833 73.12 70.948 74.094C70.694 71.84 69.476 69.879 67.715 68.634" stroke="black" stroke-miterlimit="10" stroke-linecap="round" stroke-linejoin="round"/>
<path d="M70.838 74.076C65.774 73.129 60.681 73.335 55.56 74.674C55.461 75.525 55.494 76.416 55.7 77.331C56.363 80.273 58.778 82.608 61.742 83.167C66.684 84.098 71 80.333 71 75.56C71 75.049 70.933 74.558 70.838 74.076Z" stroke="black" stroke-miterlimit="10" stroke-linecap="round" stroke-linejoin="round"/>
<path d="M89.838 74.076C84.774 73.129 79.681 73.335 74.56 74.674C74.461 75.525 74.494 76.416 74.7 77.331C75.363 80.273 77.778 82.608 80.742 83.167C85.684 84.098 90 80.333 90 75.56C90 75.049 89.933 74.558 89.838 74.076Z" stroke="black" stroke-miterlimit="10" stroke-linecap="round" stroke-linejoin="round"/>
<path d="M78.224 68.347C76.071 69.662 74.612 71.999 74.515 74.685C79.689 73.325 84.833 73.12 89.948 74.094C89.694 71.84 88.476 69.879 86.715 68.634" stroke="black" stroke-miterlimit="10" stroke-linecap="round" stroke-linejoin="round"/>
<path d="M63.5 76C64.3284 76 65 75.3284 65 74.5C65 73.6716 64.3284 73 63.5 73C62.6716 73 62 73.6716 62 74.5C62 75.3284 62.6716 76 63.5 76Z" fill="#1A1A1A"/>
<path d="M65.737 65.568C63.199 65.568 60.509 65.41 57.696 64.977C56.604 64.809 55.855 63.788 56.023 62.696C56.192 61.604 57.221 60.852 58.303 61.024C64.915 62.04 70.705 61.433 75.814 60.897C80.483 60.406 84.514 59.982 87.675 61.119C88.715 61.493 89.255 62.638 88.881 63.677C88.507 64.716 87.362 65.256 86.323 64.884C84.021 64.057 80.411 64.436 76.23 64.876C73.155 65.197 69.624 65.568 65.737 65.568Z" stroke="black" stroke-miterlimit="10" stroke-linecap="round" stroke-linejoin="round"/>
<path d="M82.5 76C83.3284 76 84 75.3284 84 74.5C84 73.6716 83.3284 73 82.5 73C81.6716 73 81 73.6716 81 74.5C81 75.3284 81.6716 76 82.5 76Z" fill="#1A1A1A"/>
<path d="M56.84 85.202C56.84 85.202 60.5 88.5 65.5 86.5" stroke="black" stroke-miterlimit="10" stroke-linecap="round" stroke-linejoin="round"/>
<path d="M87.5 85.202C87.5 85.202 83.84 88.5 78.84 86.5" stroke="black" stroke-miterlimit="10" stroke-linecap="round" stroke-linejoin="round"/>
<path d="M75.067 55.251C76.212 55.068 77.369 54.823 78.5 54.5" stroke="black" stroke-miterlimit="10" stroke-linecap="round" stroke-linejoin="round"/>
<path d="M63.5 55.5C63.5 55.5 67.288 55.973 71.931 55.617" stroke="black" stroke-miterlimit="10" stroke-linecap="round" stroke-linejoin="round"/>
<path d="M69.5 84.5C69.5 84.5 69.5 88.5 69.5 90.5C69.5 95.5 74.5 95.5 74.5 90.5C74.5 86.5 74.5 84.5 74.5 84.5" stroke="black" stroke-miterlimit="10" stroke-linecap="round" stroke-linejoin="round"/>
<path d="M60.5 104.5C60.5 104.5 71.5 99.5 83.5 104.5" stroke="black" stroke-miterlimit="10" stroke-linecap="round" stroke-linejoin="round"/>
<path d="M44.866 61.878L46.915 64.553" stroke="black" stroke-miterlimit="10" stroke-linecap="round" stroke-linejoin="round"/>
<path d="M37.723 52.553L42.854 59.252" stroke="black" stroke-miterlimit="10" stroke-linecap="round" stroke-linejoin="round"/>
<path d="M52.591 42.022L54.191 48.979" stroke="black" stroke-miterlimit="10" stroke-linecap="round" stroke-linejoin="round"/>
<path d="M51.255 36.213L51.887 38.959" stroke="black" stroke-miterlimit="10" stroke-linecap="round" stroke-linejoin="round"/>
<path d="M51.002 83.09C48.164 83.566 46 86.027 46 89C46 92.206 48.517 94.818 51.682 94.984C51.187 91.021 51.009 86.911 51.002 83.09Z" stroke="black" stroke-width="2" stroke-miterlimit="10" stroke-linecap="round" stroke-linejoin="round"/>
<path d="M93.99 83.088C93.967 86.958 93.715 90.964 93.129 94.993C96.383 94.924 99 92.27 99 89C99 86.024 96.832 83.561 93.99 83.088Z" stroke="black" stroke-width="2" stroke-miterlimit="10" stroke-linecap="round" stroke-linejoin="round"/>
</svg>
