<?xml version="1.0" encoding="UTF-8"?>
<!--Generator: Apple Native CoreSVG 232.5-->
<!DOCTYPE svg
PUBLIC "-//W3C//DTD SVG 1.1//EN"
       "http://www.w3.org/Graphics/SVG/1.1/DTD/svg11.dtd">
<svg version="1.1" xmlns="http://www.w3.org/2000/svg" xmlns:xlink="http://www.w3.org/1999/xlink" width="54.3295" height="54.0654">
 <g>
  <rect height="54.0654" opacity="0" width="54.3295" x="0" y="0"/>
  <path d="M0 31.1997C0 36.0488 2.45458 38.519 7.23924 38.519L15.4888 38.519L15.4888 46.7685C15.4888 51.5576 17.9634 54.0077 22.8081 54.0077L31.184 54.0077C36.0332 54.0077 38.5034 51.5576 38.5034 46.7685L38.5034 38.519L46.7485 38.519C51.5375 38.519 53.9877 36.0488 53.9877 31.1997L53.9877 22.8237C53.9877 17.979 51.5375 15.5044 46.7485 15.5044L38.5034 15.5044L38.5034 7.23924C38.5034 2.45458 36.0332 0 31.184 0L22.8081 0C17.9634 0 15.4888 2.45458 15.4888 7.23924L15.4888 15.5044L7.23924 15.5044C2.45458 15.5044 0 17.979 0 22.8237ZM4.92379 30.7177L4.92379 23.3056C4.92379 21.4204 5.87008 20.4721 7.79733 20.4721L20.4565 20.4721L20.4565 7.79733C20.4565 5.87008 21.4047 4.92379 23.29 4.92379L30.7021 4.92379C32.5874 4.92379 33.5356 5.87008 33.5356 7.79733L33.5356 20.4721L46.1904 20.4721C48.1176 20.4721 49.0639 21.4204 49.0639 23.3056L49.0639 30.7177C49.0639 32.603 48.1176 33.5513 46.1904 33.5513L33.5356 33.5513L33.5356 46.2304C33.5356 48.1621 32.5874 49.0884 30.7021 49.0884L23.29 49.0884C21.4047 49.0884 20.4565 48.1621 20.4565 46.2304L20.4565 33.5513L7.79733 33.5513C5.87008 33.5513 4.92379 32.603 4.92379 30.7177Z" fill="#ffffff" fill-opacity="0.85"/>
 </g>
</svg>
