<?xml version="1.0" encoding="UTF-8"?>
<!--Generator: Apple Native CoreSVG 341-->
<!DOCTYPE svg
PUBLIC "-//W3C//DTD SVG 1.1//EN"
       "http://www.w3.org/Graphics/SVG/1.1/DTD/svg11.dtd">
<svg version="1.1" xmlns="http://www.w3.org/2000/svg" xmlns:xlink="http://www.w3.org/1999/xlink" viewBox="0 0 39.7266 29.9559">
 <g>
  <rect height="29.9559" opacity="0" width="39.7266" x="0" y="0"/>
  <path d="M12.5195 28.3666L37.7539 28.3666C38.6328 28.3666 39.3555 27.683 39.3555 26.8041C39.3555 25.9057 38.6328 25.2221 37.7539 25.2221L12.5195 25.2221C11.6211 25.2221 10.9375 25.9057 10.9375 26.8041C10.9375 27.683 11.6211 28.3666 12.5195 28.3666Z" fill="white" fill-opacity="0.85"/>
  <path d="M1.58203 29.7338L5.05859 27.6635C5.66406 27.2924 5.64453 26.3744 5.05859 26.0229L1.58203 23.9135C0.800781 23.4448 0 23.6596 0 24.5971L0 29.0502C0 29.9487 0.820312 30.183 1.58203 29.7338Z" fill="white" fill-opacity="0.85"/>
  <path d="M12.5195 16.5698L37.7539 16.5698C38.6328 16.5698 39.3555 15.8666 39.3555 14.9877C39.3555 14.1088 38.6328 13.4252 37.7539 13.4252L12.5195 13.4252C11.6211 13.4252 10.9375 14.1088 10.9375 14.9877C10.9375 15.8666 11.6211 16.5698 12.5195 16.5698Z" fill="white" fill-opacity="0.85"/>
  <path d="M1.58203 17.8979L5.05859 15.8276C5.66406 15.4565 5.64453 14.5385 5.05859 14.1869L1.58203 12.0776C0.800781 11.6088 0 11.8432 0 12.7612L0 17.2143C0 18.1127 0.820312 18.3471 1.58203 17.8979Z" fill="white" fill-opacity="0.85"/>
  <path d="M12.5195 4.75335L37.7539 4.75335C38.6328 4.75335 39.3555 4.06975 39.3555 3.19085C39.3555 2.29241 38.6328 1.60882 37.7539 1.60882L12.5195 1.60882C11.6211 1.60882 10.9375 2.29241 10.9375 3.19085C10.9375 4.06975 11.6211 4.75335 12.5195 4.75335Z" fill="white" fill-opacity="0.85"/>
  <path d="M1.58203 6.12054L5.05859 4.05022C5.66406 3.67913 5.64453 2.76116 5.05859 2.4096L1.58203 0.300223C0.800781-0.188058 0 0.0463172 0 0.983817L0 5.43694C0 6.33538 0.820312 6.56975 1.58203 6.12054Z" fill="white" fill-opacity="0.85"/>
 </g>
</svg>
