<?xml version="1.0" encoding="UTF-8"?>
<!--Generator: Apple Native CoreSVG 232.5-->
<!DOCTYPE svg
PUBLIC "-//W3C//DTD SVG 1.1//EN"
       "http://www.w3.org/Graphics/SVG/1.1/DTD/svg11.dtd">
<svg version="1.1" xmlns="http://www.w3.org/2000/svg" xmlns:xlink="http://www.w3.org/1999/xlink" width="59.9277" height="56.2778">
 <g>
  <rect height="56.2778" opacity="0" width="59.9277" x="0" y="0"/>
  <path d="M22.7671 48.9983L36.8144 48.9983L36.8144 31.3655C36.8144 30.2248 36.0776 29.4836 34.937 29.4836L24.6733 29.4836C23.5127 29.4836 22.7671 30.2248 22.7671 31.3655ZM13.2124 52.1765L46.249 52.1765C49.9399 52.1765 52.1157 50.0451 52.1157 46.447L52.1157 19.3948L47.3325 16.116L47.3325 44.9846C47.3325 46.532 46.4912 47.3933 44.9883 47.3933L14.4731 47.3933C12.9501 47.3933 12.1088 46.532 12.1088 44.9846L12.1088 16.136L7.32567 19.3948L7.32567 46.447C7.32567 50.0451 9.49705 52.1765 13.2124 52.1765ZM0 24.6125C0 25.8728 0.948235 26.948 2.4951 26.948C3.2534 26.948 3.92918 26.5554 4.52536 26.0656L28.7749 5.72042C29.4306 5.13986 30.1997 5.13986 30.8598 5.72042L55.0962 26.0656C55.6767 26.5554 56.3525 26.948 57.1108 26.948C58.5131 26.948 59.5859 26.0774 59.5859 24.6726C59.5859 23.8479 59.267 23.2102 58.6489 22.6829L33.2382 1.32494C31.1504-0.441648 28.5044-0.441648 26.3965 1.32494L0.957024 22.6872C0.318845 23.2146 0 23.9324 0 24.6125ZM45.2187 12.7888L52.1157 18.593L52.1157 6.80836C52.1157 5.70777 51.4145 5.0066 50.3139 5.0066L47.0249 5.0066C45.9443 5.0066 45.2187 5.70777 45.2187 6.80836Z" fill="#ffffff" fill-opacity="0.85"/>
 </g>
</svg>
