<?xml version="1.0" encoding="UTF-8"?>
<!--Generator: Apple Native CoreSVG 341-->
<!DOCTYPE svg
PUBLIC "-//W3C//DTD SVG 1.1//EN"
       "http://www.w3.org/Graphics/SVG/1.1/DTD/svg11.dtd">
<svg version="1.1" xmlns="http://www.w3.org/2000/svg" xmlns:xlink="http://www.w3.org/1999/xlink" viewBox="0 0 47.6562 33.8477">
 <g>
  <rect height="33.8477" opacity="0" width="47.6562" x="0" y="0"/>
  <path d="M1.5625 33.8086L13.5742 33.8086C14.4727 33.8086 15.1758 33.125 15.1758 32.2461C15.1758 31.3672 14.4727 30.6641 13.5742 30.6641L1.5625 30.6641C0.683594 30.6641 0 31.3672 0 32.2461C0 33.125 0.683594 33.8086 1.5625 33.8086Z" fill="white" fill-opacity="0.85"/>
  <path d="M1.5625 23.5938L13.5742 23.5938C14.4727 23.5938 15.1758 22.9102 15.1758 22.0312C15.1758 21.1328 14.4727 20.4492 13.5742 20.4492L1.5625 20.4492C0.683594 20.4492 0 21.1328 0 22.0312C0 22.9102 0.683594 23.5938 1.5625 23.5938Z" fill="white" fill-opacity="0.85"/>
  <path d="M1.5625 13.3789L13.5742 13.3789C14.4727 13.3789 15.1758 12.6758 15.1758 11.7969C15.1758 10.918 14.4727 10.2344 13.5742 10.2344L1.5625 10.2344C0.683594 10.2344 0 10.918 0 11.7969C0 12.6758 0.683594 13.3789 1.5625 13.3789Z" fill="white" fill-opacity="0.85"/>
  <path d="M1.5625 3.14453L37.7539 3.14453C38.6328 3.14453 39.3555 2.46094 39.3555 1.58203C39.3555 0.703125 38.6328 0 37.7539 0L1.5625 0C0.683594 0 0 0.703125 0 1.58203C0 2.46094 0.683594 3.14453 1.5625 3.14453Z" fill="white" fill-opacity="0.85"/>
  <path d="M21.5039 33.4766L44.6289 33.4766C46.25 33.4766 47.2852 32.4609 47.2852 30.8594L47.2852 13.0859C47.2852 11.5234 46.25 10.4883 44.6289 10.4883L21.5039 10.4883C19.8828 10.4883 18.8477 11.5234 18.8477 13.0859L18.8477 30.8594C18.8477 32.4609 19.8828 33.4766 21.5039 33.4766ZM21.6602 16.0742C21.2695 16.0742 21.0156 15.8008 21.0156 15.4297L21.0156 13.2812C21.0156 12.8906 21.2695 12.6172 21.6602 12.6172L23.4961 12.6172C23.9062 12.6172 24.1602 12.8906 24.1602 13.2812L24.1602 15.4297C24.1602 15.8008 23.9062 16.0742 23.4961 16.0742ZM21.6602 21.1523C21.2695 21.1523 21.0156 20.8789 21.0156 20.5469L21.0156 18.3789C21.0156 17.9883 21.2695 17.7148 21.6602 17.7148L23.4961 17.7148C23.9062 17.7148 24.1602 17.9883 24.1602 18.3789L24.1602 20.5469C24.1602 20.8789 23.9062 21.1523 23.4961 21.1523ZM21.6602 26.2305C21.2695 26.2305 21.0156 25.9766 21.0156 25.625L21.0156 23.457C21.0156 23.0664 21.2695 22.793 21.6602 22.793L23.4961 22.793C23.9062 22.793 24.1602 23.0664 24.1602 23.457L24.1602 25.625C24.1602 25.9766 23.9062 26.2305 23.4961 26.2305ZM21.6602 31.3281C21.2695 31.3281 21.0156 31.0742 21.0156 30.7031L21.0156 28.5352C21.0156 28.1445 21.2695 27.8711 21.6602 27.8711L23.4961 27.8711C23.9062 27.8711 24.1602 28.1445 24.1602 28.5352L24.1602 30.7031C24.1602 31.0742 23.9062 31.3281 23.4961 31.3281ZM42.6367 16.0742C42.2266 16.0742 41.9727 15.8008 41.9727 15.4297L41.9727 13.2812C41.9727 12.8906 42.2266 12.6172 42.6367 12.6172L44.4727 12.6172C44.8633 12.6172 45.1172 12.8906 45.1172 13.2812L45.1172 15.4297C45.1172 15.8008 44.8633 16.0742 44.4727 16.0742ZM42.6367 21.1523C42.2266 21.1523 41.9727 20.8789 41.9727 20.5469L41.9727 18.3789C41.9727 17.9883 42.2266 17.7148 42.6367 17.7148L44.4727 17.7148C44.8633 17.7148 45.1172 17.9883 45.1172 18.3789L45.1172 20.5469C45.1172 20.8789 44.8633 21.1523 44.4727 21.1523ZM42.6367 26.2305C42.2266 26.2305 41.9727 25.9766 41.9727 25.625L41.9727 23.457C41.9727 23.0664 42.2266 22.793 42.6367 22.793L44.4727 22.793C44.8633 22.793 45.1172 23.0664 45.1172 23.457L45.1172 25.625C45.1172 25.9766 44.8633 26.2305 44.4727 26.2305ZM42.6367 31.3281C42.2266 31.3281 41.9727 31.0742 41.9727 30.7031L41.9727 28.5352C41.9727 28.1445 42.2266 27.8711 42.6367 27.8711L44.4727 27.8711C44.8633 27.8711 45.1172 28.1445 45.1172 28.5352L45.1172 30.7031C45.1172 31.0742 44.8633 31.3281 44.4727 31.3281ZM26.875 30.5469C26.5039 30.5469 26.2695 30.3125 26.2695 29.9219L26.2695 24.1016C26.2695 23.6914 26.5039 23.457 26.875 23.457L39.2578 23.457C39.6289 23.457 39.8633 23.6914 39.8633 24.1016L39.8633 29.9219C39.8633 30.3125 39.6289 30.5469 39.2578 30.5469ZM26.875 20.5273C26.5039 20.5273 26.2695 20.293 26.2695 19.9023L26.2695 14.0234C26.2695 13.6328 26.5039 13.3984 26.875 13.3984L39.2578 13.3984C39.6289 13.3984 39.8633 13.6328 39.8633 14.0234L39.8633 19.9023C39.8633 20.293 39.6289 20.5273 39.2578 20.5273Z" fill="white" fill-opacity="0.85"/>
 </g>
</svg>
